<?xml version="1.0" standalone="no"?>
<!DOCTYPE svg PUBLIC "-//W3C//DTD SVG 20010904//EN"
 "http://www.w3.org/TR/2001/REC-SVG-20010904/DTD/svg10.dtd">
<svg version="1.0" xmlns="http://www.w3.org/2000/svg"
 width="370.000000pt" height="370.000000pt" viewBox="0 0 370.000000 370.000000"
 preserveAspectRatio="xMidYMid meet">
<metadata>
Created by potrace 1.11, written by Peter Selinger 2001-2013
</metadata>
<g transform="translate(0.000000,370.000000) scale(0.100000,-0.100000)"
fill="#000000" stroke="none">
<path d="M0 1850 l0 -1850 755 0 c748 0 755 0 755 20 0 11 -6 20 -12 20 -10 0
-10 2 -2 8 7 4 14 18 15 31 2 14 11 26 19 28 10 3 11 2 4 -4 -12 -8 -17 -37
-15 -80 l1 -23 1090 0 1090 0 0 703 c0 691 0 702 -20 715 -26 16 -26 59 0 67
20 6 20 15 20 655 0 639 0 648 -20 653 -15 4 -20 14 -20 40 0 45 9 67 26 67
12 0 14 53 14 320 0 207 -4 320 -10 320 -5 0 -10 -13 -10 -30 0 -16 -4 -30
-10 -30 -5 0 -10 16 -10 35 0 28 4 35 20 35 18 0 20 7 20 75 l0 75 -1850 0
-1850 0 0 -1850z m907 1788 c-3 -7 -5 -2 -5 12 0 14 2 19 5 13 2 -7 2 -19 0
-25z m167 10 c15 -20 14 -24 -6 -45 -25 -27 -39 -22 -14 6 15 16 15 19 1 31
-8 7 -15 16 -15 21 0 16 19 9 34 -13z m-666 -37 c-10 -16 -10 -23 0 -33 6 -6
12 -16 12 -21 0 -5 -8 1 -19 14 -17 22 -18 25 -2 45 20 27 27 24 9 -5z m499
-13 c-3 -8 -6 -5 -6 6 -1 11 2 17 5 13 3 -3 4 -12 1 -19z m-50 6 c-3 -3 -12
-4 -19 -1 -8 3 -5 6 6 6 11 1 17 -2 13 -5z m-10 -30 c-3 -3 -12 -4 -19 -1 -8
3 -5 6 6 6 11 1 17 -2 13 -5z m2408 -40 c-1 -29 3 -51 12 -60 13 -12 10 -14
-19 -13 -18 0 -27 3 -20 6 7 3 12 24 12 53 0 29 -5 50 -12 53 -7 3 -3 6 8 6
19 1 21 -4 19 -45z m-495 -34 l0 -60 -30 0 c-27 0 -30 3 -30 30 0 23 6 33 25
40 15 6 25 17 25 30 0 11 2 20 5 20 3 0 5 -27 5 -60z m338 29 c2 -14 -4 -31
-12 -39 -22 -17 -20 -28 7 -33 13 -3 7 -5 -16 -6 l-38 -1 25 36 c28 41 25 68
-6 58 -14 -4 -18 -3 -13 6 13 21 50 7 53 -21z m-548 -14 c5 -43 0 -85 -10 -85
-6 0 -10 27 -10 62 0 38 4 58 9 53 5 -6 10 -19 11 -30z m990 21 c6 -8 10 -25
8 -38 -2 -18 -9 -23 -33 -23 -24 0 -31 5 -33 23 -4 25 13 52 33 52 7 0 18 -7
25 -14z m46 -14 c-3 -10 -1 -24 4 -32 12 -20 27 -4 32 35 3 24 6 27 12 12 5
-9 5 -29 2 -43 -5 -20 -12 -25 -34 -22 -23 3 -27 8 -30 42 -2 26 0 36 8 31 6
-4 8 -14 6 -23z m-128 -2 c5 -13 3 -13 -12 -1 -21 17 -33 7 -39 -34 -3 -25 -4
-23 -6 11 -1 38 1 41 26 40 14 -1 29 -8 31 -16z m-310 -2 c8 -8 15 -8 28 3 16
13 16 12 5 -10 -9 -17 -10 -26 -2 -34 6 -6 11 -16 11 -21 0 -6 -8 -2 -16 9
-14 19 -16 19 -25 3 -6 -10 -15 -18 -21 -18 -6 0 -4 8 5 18 21 23 21 27 1 46
-8 9 -12 16 -7 16 5 0 14 -5 21 -12z m-1172 -13 c-4 -11 3 -19 19 -25 20 -8
25 -16 24 -42 l-1 -33 -7 29 c-8 38 -31 47 -31 12 0 -13 -4 -28 -10 -31 -6 -4
-10 15 -10 49 0 34 4 56 11 56 6 0 8 -7 5 -15z m870 -10 c9 -36 -2 -55 -30
-55 -30 0 -46 41 -26 65 20 24 49 18 56 -10z m37 -12 c6 -34 3 -53 -7 -42 -8
9 -14 79 -7 79 5 0 11 -17 14 -37z m52 -2 c-4 -17 -11 -31 -16 -31 -11 0 -11
0 2 39 14 39 23 34 14 -8z m-349 -17 c1 -29 1 -32 -3 -9 -3 17 -10 36 -16 44
-10 11 -9 13 3 9 10 -3 15 -19 16 -44z m92 9 c3 -28 -1 -33 -23 -39 -18 -4
-30 -2 -36 7 -9 15 7 39 27 39 20 0 17 18 -3 24 -11 3 -7 4 7 3 20 -2 26 -8
28 -34z m-1228 -22 c0 -30 5 -51 13 -54 6 -3 -1 -5 -18 -5 -16 0 -24 2 -17 5
7 3 12 23 12 48 0 25 -5 45 -12 48 -8 3 -6 6 5 6 14 1 17 -8 17 -48z m158 18
c15 -1 15 -2 0 -6 -11 -3 -18 -14 -18 -28 0 -13 8 -29 18 -35 16 -10 15 -11
-3 -8 -22 3 -37 55 -27 91 5 18 7 19 10 5 2 -10 11 -19 20 -19z m737 20 c4 -6
4 -13 0 -17 -3 -3 -10 -1 -14 6 -10 17 -27 -2 -34 -38 -3 -19 -5 -16 -6 12 -1
34 7 45 36 47 6 1 15 -4 18 -10z m143 4 c-24 -6 -23 -19 3 -26 28 -7 19 -31
-12 -34 -14 -1 -17 0 -6 3 21 7 23 24 3 24 -8 0 -18 5 -21 10 -10 16 4 30 28
29 17 -1 18 -2 5 -6z m515 0 c-7 -2 -21 -2 -30 0 -10 3 -4 5 12 5 17 0 24 -2
18 -5z m-1793 -17 c0 -8 -4 -18 -10 -21 -5 -3 -10 3 -10 14 0 12 5 21 10 21 6
0 10 -6 10 -14z m17 -8 c-3 -8 -6 -5 -6 6 -1 11 2 17 5 13 3 -3 4 -12 1 -19z
m868 -18 c0 -31 -3 -35 -25 -35 -29 0 -40 36 -19 61 21 26 44 12 44 -26z m46
13 l11 -28 13 30 c7 17 14 25 14 18 1 -17 -21 -63 -30 -63 -6 0 -29 53 -29 66
0 13 12 -1 21 -23z m119 7 c0 -13 -7 -20 -20 -20 -27 0 -25 -17 3 -23 15 -4
12 -5 -8 -4 -48 3 -49 67 0 67 18 0 25 -5 25 -20z m650 10 c0 -5 -4 -10 -10
-10 -5 0 -10 5 -10 10 0 6 5 10 10 10 6 0 10 -4 10 -10z m-1062 -12 c18 -18
14 -38 -8 -38 -27 0 -25 -18 3 -23 19 -4 18 -4 -5 -6 -22 -1 -29 4 -34 24 -4
15 -1 32 6 40 15 18 22 19 38 3z m-1011 -41 c-4 -28 -2 -48 5 -55 9 -9 8 -12
-5 -12 -18 0 -20 14 -11 73 9 52 18 47 11 -6z m843 14 c0 -16 6 -31 13 -34 6
-2 0 -6 -15 -9 -16 -3 -28 -1 -28 3 0 5 5 9 10 9 15 0 12 47 -2 53 -8 3 -6 6
5 6 12 1 17 -7 17 -28z m63 3 l14 -27 7 28 c4 15 9 25 12 23 6 -7 -17 -68 -26
-68 -4 0 -10 8 -13 18 -2 9 -8 25 -12 35 -11 27 3 20 18 -9z m-423 -4 c0 -5
-9 -6 -20 -3 -19 5 -25 -4 -21 -34 1 -6 -2 -14 -7 -17 -4 -2 -9 8 -10 24 -1
19 4 32 15 38 18 10 43 5 43 -8z m68 -1 c2 -10 -6 -19 -18 -22 -27 -7 -26 -25
3 -30 21 -4 21 -4 1 -6 -33 -2 -49 24 -35 55 12 28 44 30 49 3z m157 -14 c0
-25 -4 -30 -27 -33 -21 -2 -28 1 -28 13 0 9 9 19 20 22 25 7 26 20 3 27 -11 3
-7 4 7 3 21 -2 25 -7 25 -32z m-990 -5 c-17 -19 -17 -21 -2 -38 26 -29 20 -38
-7 -13 l-25 23 21 29 c12 16 24 27 26 24 3 -3 -3 -14 -13 -25z m525 21 c0 -5
-6 -12 -12 -14 -10 -4 -10 -8 1 -15 20 -14 6 -42 -21 -41 l-23 2 23 4 c26 5
28 12 5 28 -15 11 -15 15 -4 29 15 18 31 21 31 7z m-139 -33 c-5 -24 -13 -34
-29 -36 -13 -2 -25 3 -28 12 -9 23 14 56 40 56 21 0 23 -3 17 -32z m57 25
c-10 -2 -18 -7 -18 -10 0 -3 8 -12 18 -19 21 -16 4 -38 -24 -31 -16 4 -15 5 4
6 24 1 31 21 7 21 -8 0 -15 9 -15 20 0 14 6 20 23 19 16 -1 18 -2 5 -6z m155
0 c-7 -2 -21 -2 -30 0 -10 3 -4 5 12 5 17 0 24 -2 18 -5z m-373 -10 c-34 -13
-38 -40 -7 -53 22 -10 22 -10 -3 -7 -43 4 -34 68 9 66 13 0 14 -2 1 -6z m380
-17 c0 -2 -11 -6 -25 -8 -13 -3 -22 -1 -19 3 5 9 44 13 44 5z m363 -170 c-3
-36 0 -45 14 -49 10 -3 2 -5 -17 -6 -24 0 -31 2 -21 8 10 6 12 23 9 60 -4 38
-2 49 7 41 6 -5 10 -28 8 -54z m228 4 c5 0 9 5 9 10 0 6 5 10 11 10 8 0 8 -4
0 -14 -9 -11 -10 -20 -1 -35 6 -12 7 -21 1 -21 -5 0 -12 8 -16 18 -7 16 -8 15
-15 -3 -6 -13 -8 0 -8 40 1 33 3 45 5 28 2 -18 8 -33 14 -33z m72 35 c-7 -21
-13 -19 -13 6 0 11 4 18 10 14 5 -3 7 -12 3 -20z m24 3 c-3 -8 -6 -5 -6 6 -1
11 2 17 5 13 3 -3 4 -12 1 -19z m-541 -25 c-11 -11 -19 6 -11 24 8 17 8 17 12
0 3 -10 2 -21 -1 -24z m124 18 c0 -10 9 -21 20 -24 27 -7 27 -53 0 -67 -11 -6
-25 -8 -30 -5 -13 8 -13 115 0 115 6 0 10 -8 10 -19z m-153 -13 c-3 -8 -6 -5
-6 6 -1 11 2 17 5 13 3 -3 4 -12 1 -19z m-119 -19 c12 0 11 -3 -5 -9 -27 -11
-31 -47 -5 -53 13 -4 12 -5 -4 -6 -18 -1 -23 6 -26 34 -2 19 0 35 4 35 4 0 9
8 9 18 1 16 2 16 6 0 2 -10 12 -18 21 -19z m-370 -10 c12 0 11 -3 -5 -9 -25
-10 -31 -45 -10 -53 6 -2 9 -8 5 -12 -12 -13 -28 6 -28 33 0 39 13 82 18 60 2
-10 11 -18 20 -19z m832 -15 c0 -30 -3 -34 -25 -34 -18 0 -25 5 -25 20 0 13 7
20 20 20 11 0 20 5 20 10 0 6 -7 10 -16 10 -8 0 -13 4 -9 10 12 20 35 -3 35
-36z m77 5 c1 -33 1 -33 -5 -5 -9 39 -26 35 -32 -6 -6 -36 -15 -29 -18 14 -1
18 4 28 16 31 30 8 37 1 39 -34z m-609 -2 c2 -11 -6 -19 -22 -23 -14 -3 -23
-10 -20 -16 3 -5 12 -7 20 -4 8 3 14 1 14 -5 0 -20 -45 -4 -48 17 -6 41 48 71
56 31z m-218 1 c-1 -37 -14 -58 -36 -58 -18 0 -24 5 -24 23 0 13 5 28 12 35
16 16 48 15 48 0z m75 1 c11 -16 -5 -25 -16 -9 -8 13 -10 13 -19 0 -5 -8 -10
-23 -10 -32 0 -10 -5 -18 -11 -18 -6 0 -8 7 -5 16 3 9 6 24 6 35 0 13 7 19 24
19 14 0 28 -5 31 -11z m69 -26 c-4 -21 -11 -44 -17 -50 -12 -16 -34 -17 -43
-2 -4 8 0 9 15 4 12 -4 21 -2 21 4 0 6 -7 11 -15 11 -10 0 -15 10 -15 28 0 35
6 42 37 42 22 0 23 -3 17 -37z m214 30 c-10 -2 -26 -2 -35 0 -10 3 -2 5 17 5
19 0 27 -2 18 -5z m0 -30 c-10 -2 -26 -2 -35 0 -10 3 -2 5 17 5 19 0 27 -2 18
-5z m160 -50 c-10 -2 -28 -2 -40 0 -13 2 -5 4 17 4 22 1 32 -1 23 -4z m589
-85 c-3 -7 -5 -2 -5 12 0 14 2 19 5 13 2 -7 2 -19 0 -25z m30 0 c-3 -7 -5 -2
-5 12 0 14 2 19 5 13 2 -7 2 -19 0 -25z m-919 5 c-10 -2 -18 -11 -18 -19 0 -8
8 -14 18 -15 13 0 12 -2 -5 -9 -16 -6 -23 -18 -23 -35 0 -31 -16 -65 -31 -65
-6 0 -3 10 5 22 19 27 21 74 4 81 -8 4 -7 6 3 6 9 1 19 10 22 21 3 12 13 20
24 19 16 -1 16 -2 1 -6z m122 -7 c0 -8 -4 -18 -10 -21 -5 -3 -10 3 -10 14 0
12 5 21 10 21 6 0 10 -6 10 -14z m17 -18 c-3 -7 -5 -2 -5 12 0 14 2 19 5 13 2
-7 2 -19 0 -25z m855 12 l22 -20 -24 -25 c-27 -28 -42 -25 -16 4 15 16 15 19
1 31 -15 12 -20 30 -10 30 3 0 15 -9 27 -20z m-1249 -10 c-4 -15 0 -20 16 -20
23 0 27 -20 10 -55 -7 -16 -9 -14 -6 13 2 17 0 32 -5 32 -5 0 -16 -15 -24 -32
l-15 -33 5 40 c3 22 6 48 6 58 0 9 4 17 9 17 5 0 7 -9 4 -20z m524 -42 c-2
-13 -4 -3 -4 22 0 25 2 35 4 23 2 -13 2 -33 0 -45z m-413 16 c4 -12 1 -14 -14
-9 -17 5 -21 1 -26 -24 -4 -17 -11 -31 -16 -31 -6 0 -7 7 -4 16 3 9 6 24 6 34
0 16 11 23 41 29 4 0 10 -6 13 -15z m71 -4 c0 -8 -11 -20 -25 -27 l-24 -12 24
-10 c25 -10 25 -10 2 -10 -28 -1 -38 22 -23 55 12 27 46 30 46 4z m-235 0 c0
-5 -4 -10 -10 -10 -5 0 -10 5 -10 10 0 6 5 10 10 10 6 0 10 -4 10 -10z m373 3
c-7 -2 -21 -2 -30 0 -10 3 -4 5 12 5 17 0 24 -2 18 -5z m0 -30 c-7 -2 -21 -2
-30 0 -10 3 -4 5 12 5 17 0 24 -2 18 -5z m540 -10 c-7 -2 -21 -2 -30 0 -10 3
-4 5 12 5 17 0 24 -2 18 -5z m70 0 c-7 -2 -19 -2 -25 0 -7 3 -2 5 12 5 14 0
19 -2 13 -5z m-993 -13 c0 -5 -4 -10 -10 -10 -5 0 -10 5 -10 10 0 6 5 10 10
10 6 0 10 -4 10 -10z m527 4 c-3 -3 -12 -4 -19 -1 -8 3 -5 6 6 6 11 1 17 -2
13 -5z m2325 -136 c5 -45 4 -48 -18 -48 -13 0 -24 5 -24 10 0 6 5 10 10 10 6
0 10 18 10 41 0 29 -3 38 -12 33 -8 -5 -8 -1 1 10 18 22 27 8 33 -56z m-1072
38 c0 -16 5 -23 16 -22 9 0 21 -7 28 -16 15 -25 -3 -52 -38 -56 -26 -3 -26 -2
-26 57 0 34 4 61 10 61 6 0 10 -11 10 -24z m300 -30 c0 -47 -3 -54 -22 -59
-47 -13 -66 48 -20 68 12 5 22 18 22 27 0 10 5 18 10 18 6 0 10 -24 10 -54z
m-868 -20 c-1 -25 3 -46 9 -46 17 0 23 32 10 52 -10 16 -10 19 1 16 18 -6 23
-59 6 -69 -7 -5 -21 -9 -30 -9 -15 0 -18 10 -18 62 0 46 3 59 11 51 6 -6 11
-32 11 -57z m266 -47 c-21 -14 -36 -10 -43 11 -9 30 4 60 26 60 13 0 20 8 21
23 1 12 3 -2 5 -32 3 -37 0 -57 -9 -62z m-741 69 c-3 -7 -5 -2 -5 12 0 14 2
19 5 13 2 -7 2 -19 0 -25z m33 12 c0 -11 -4 -20 -10 -20 -5 0 -10 9 -10 20 0
11 5 20 10 20 6 0 10 -9 10 -20z m61 -20 c16 0 19 -7 17 -37 l-1 -38 -4 33
c-5 40 -25 38 -34 -4 -5 -19 -7 -9 -6 31 0 33 2 50 4 38 3 -15 12 -23 24 -23z
m248 26 c7 -8 11 -32 9 -53 -3 -33 -6 -38 -28 -38 -22 0 -25 5 -28 38 -3 36
10 67 28 67 4 0 13 -6 19 -14z m-715 -48 c-6 -46 -5 -51 10 -45 10 4 15 3 11
-3 -3 -6 -13 -10 -21 -10 -15 0 -19 45 -8 88 11 39 15 24 8 -30z m636 18 c0
-19 4 -36 9 -38 5 -1 3 -9 -5 -16 -8 -7 -14 -8 -14 -2 0 5 -9 10 -20 10 -25 0
-25 13 -3 51 23 38 33 37 33 -5z m1421 7 c-5 -17 -17 -30 -32 -34 l-24 -7 26
-1 c31 -1 44 -24 24 -41 -30 -25 -50 -8 -53 44 -3 52 6 66 45 66 18 0 20 -4
14 -27z m87 7 c5 -13 3 -13 -12 -1 -20 17 -26 12 -36 -31 l-8 -33 -1 37 c-1
20 4 39 12 41 20 9 40 3 45 -13z m90 -21 c3 -35 2 -36 -30 -35 -39 1 -45 26
-10 41 26 12 28 22 5 29 -11 3 -7 4 7 3 21 -2 25 -8 28 -38z m47 9 l7 -33 14
34 c8 18 17 31 20 28 9 -8 -40 -100 -56 -105 -12 -3 -13 -2 -1 6 14 10 12 43
-4 85 -4 9 -3 17 3 17 5 0 13 -15 17 -32z m-740 -18 c0 -28 -4 -36 -21 -38
-11 -2 -27 4 -34 13 -20 24 3 67 33 63 18 -2 22 -9 22 -38z m85 22 c0 -13 -2
-14 -9 -3 -14 21 -31 3 -31 -32 0 -18 -4 -27 -9 -21 -5 5 -7 23 -4 39 4 24 10
31 29 33 17 1 24 -3 24 -16z m168 -4 c3 -13 -3 -18 -22 -18 -14 0 -26 -4 -26
-10 0 -5 9 -10 20 -10 11 0 20 -4 20 -10 0 -14 -23 -13 -38 2 -13 13 -16 51
-5 62 13 13 48 1 51 -16z m92 5 c0 -15 -2 -15 -9 -4 -13 21 -39 6 -44 -26 -3
-23 -4 -22 -6 10 -1 35 1 37 29 37 22 0 30 -5 30 -17z m-925 -33 c0 -31 -3
-35 -25 -35 -20 0 -26 6 -28 29 -4 30 12 48 38 43 10 -1 15 -14 15 -37z m85
22 c0 -14 -2 -15 -10 -2 -12 20 -27 4 -33 -35 -3 -25 -4 -24 -6 10 -1 37 2 41
24 43 18 1 25 -3 25 -16z m160 14 c0 -2 3 -11 6 -20 5 -12 0 -16 -20 -16 -32
0 -34 -17 -3 -23 15 -4 12 -5 -8 -4 -33 2 -45 28 -25 52 11 13 50 21 50 11z
m90 -13 c0 -15 -2 -15 -9 -4 -13 21 -39 6 -44 -26 -3 -23 -4 -22 -6 10 -1 35
1 37 29 37 22 0 30 -5 30 -17z m1103 10 c-7 -2 -21 -2 -30 0 -10 3 -4 5 12 5
17 0 24 -2 18 -5z m-2837 -32 c-15 -16 -15 -19 -1 -31 8 -7 15 -17 15 -23 0
-5 -9 0 -20 13 -11 13 -20 25 -20 28 0 10 33 42 38 37 3 -3 -2 -13 -12 -24z
m689 19 c3 -5 -1 -10 -9 -10 -20 0 -21 -16 -1 -24 24 -9 6 -36 -24 -35 -23 2
-24 2 -3 6 26 5 27 9 7 30 -12 12 -13 18 -4 29 14 16 25 18 34 4z m1698 3 c-7
-2 -19 -2 -25 0 -7 3 -2 5 12 5 14 0 19 -2 13 -5z m-2010 -13 c-27 -11 -31
-47 -5 -53 13 -4 11 -5 -5 -6 -13 0 -24 5 -24 12 -4 37 11 57 41 56 8 0 5 -4
-7 -9z m165 -22 c-2 -28 -7 -33 -28 -33 -16 0 -26 6 -28 18 -5 23 15 47 40 47
16 0 19 -6 16 -32z m60 25 c-22 -6 -24 -23 -2 -23 23 0 13 -35 -11 -36 -15 -1
-16 0 -2 3 21 5 22 19 2 27 -24 9 -18 36 8 35 16 -1 18 -2 5 -6z m172 3 c0 -8
-51 -13 -56 -5 -3 5 9 9 25 9 17 0 31 -2 31 -4z m213 -13 c-7 -2 -19 -2 -25 0
-7 3 -2 5 12 5 14 0 19 -2 13 -5z m-228 -23 c4 -6 -6 -10 -22 -9 -25 0 -26 1
-8 9 11 5 21 9 22 9 1 1 5 -3 8 -9z m1012 -142 c-3 -7 -5 -2 -5 12 0 14 2 19
5 13 2 -7 2 -19 0 -25z m33 12 c0 -11 -2 -20 -4 -20 -2 0 -6 9 -9 20 -3 11 -1
20 4 20 5 0 9 -9 9 -20z m-910 -10 c0 -11 -4 -20 -10 -20 -5 0 -10 9 -10 20 0
11 5 20 10 20 6 0 10 -9 10 -20z m30 0 c0 -11 -4 -20 -10 -20 -5 0 -10 9 -10
20 0 11 5 20 10 20 6 0 10 -9 10 -20z m-774 -39 c-15 -16 -15 -19 -1 -31 8 -7
15 -17 15 -23 0 -6 -11 0 -25 13 l-25 24 22 23 c25 27 39 22 14 -6z m554 -1
c0 -5 -9 -6 -20 -3 -16 4 -21 -1 -26 -26 -4 -17 -11 -31 -16 -31 -6 0 -7 7 -4
16 3 9 6 24 6 34 0 10 8 20 18 22 21 5 42 -1 42 -12z m53 3 c-27 -18 -30 -50
-5 -56 12 -4 11 -5 -6 -6 -12 0 -25 6 -28 14 -8 21 22 65 44 64 14 0 13 -3 -5
-16z m-536 1 c-3 -3 -12 -4 -19 -1 -8 3 -5 6 6 6 11 1 17 -2 13 -5z m170 0
c-3 -3 -12 -4 -19 -1 -8 3 -5 6 6 6 11 1 17 -2 13 -5z m143 2 c0 -3 -4 -8 -10
-11 -5 -3 -10 -1 -10 4 0 6 5 11 10 11 6 0 10 -2 10 -4z m68 -3 c-22 -6 -24
-23 -2 -23 23 0 13 -35 -11 -36 -15 -1 -16 0 -2 3 21 5 22 19 2 27 -24 9 -18
36 8 35 16 -1 18 -2 5 -6z m237 -3 c-3 -5 -13 -10 -21 -10 -8 0 -14 5 -14 10
0 6 9 10 21 10 11 0 17 -4 14 -10z m352 -12 c-3 -8 -6 -5 -6 6 -1 11 2 17 5
13 3 -3 4 -12 1 -19z m-823 -20 c7 -5 4 -8 -6 -8 -12 0 -18 7 -17 23 0 15 2
17 6 7 3 -8 11 -18 17 -22z m683 0 c-3 -8 -6 -5 -6 6 -1 11 2 17 5 13 3 -3 4
-12 1 -19z m513 18 c0 -2 -11 -6 -25 -8 -13 -3 -22 -1 -19 3 5 9 44 13 44 5z
m143 -3 c-7 -2 -19 -2 -25 0 -7 3 -2 5 12 5 14 0 19 -2 13 -5z m-76 -9 c-3 -3
-12 -4 -19 -1 -8 3 -5 6 6 6 11 1 17 -2 13 -5z m-794 -11 c-7 -2 -21 -2 -30 0
-10 3 -4 5 12 5 17 0 24 -2 18 -5z m467 -3 c0 -5 -5 -10 -11 -10 -5 0 -7 5 -4
10 3 6 8 10 11 10 2 0 4 -4 4 -10z m-780 -10 c0 -5 -4 -10 -10 -10 -5 0 -10 5
-10 10 0 6 5 10 10 10 6 0 10 -4 10 -10z m1197 4 c-3 -3 -12 -4 -19 -1 -8 3
-5 6 6 6 11 1 17 -2 13 -5z m-1350 -10 c-3 -3 -12 -4 -19 -1 -8 3 -5 6 6 6 11
1 17 -2 13 -5z m473 -121 c-1 -24 -2 -26 -11 -10 -5 9 -7 22 -4 27 10 17 15
11 15 -17z m384 13 c-19 -15 -19 -15 1 -30 18 -14 18 -15 3 -16 -13 0 -18 -9
-20 -32 l-1 -33 -4 33 c-2 17 -8 32 -13 32 -5 0 -2 14 6 30 9 17 23 30 32 30
13 0 12 -2 -4 -14z m156 -40 c0 -34 5 -56 13 -59 6 -3 -4 -5 -23 -5 -19 0 -27
2 -17 5 13 3 17 15 17 47 0 23 -5 47 -12 54 -9 9 -8 12 5 12 14 0 17 -10 17
-54z m330 44 c0 -5 -4 -10 -10 -10 -5 0 -10 5 -10 10 0 6 5 10 10 10 6 0 10
-4 10 -10z m400 -10 c0 -11 -4 -20 -10 -20 -5 0 -10 9 -10 20 0 11 5 20 10 20
6 0 10 -9 10 -20z m30 0 c0 -11 -4 -20 -10 -20 -5 0 -10 9 -10 20 0 11 5 20
10 20 6 0 10 -9 10 -20z m-1556 -42 c-6 -46 -5 -51 10 -45 10 4 15 3 11 -3 -3
-6 -13 -10 -21 -10 -15 0 -19 45 -8 88 11 39 15 24 8 -30z m223 30 c-3 -8 -6
-5 -6 6 -1 11 2 17 5 13 3 -3 4 -12 1 -19z m113 7 c16 -19 6 -45 -19 -52 -11
-3 -22 -15 -24 -27 -2 -11 -5 5 -6 37 -1 50 1 57 18 57 10 0 24 -7 31 -15z
m-236 -27 c7 -5 4 -8 -6 -8 -12 0 -18 -8 -18 -24 0 -15 7 -26 18 -29 13 -4 12
-5 -5 -6 -18 -1 -22 5 -25 32 -3 34 14 78 21 55 2 -7 9 -16 15 -20z m458 -6
c-19 -6 -15 -50 6 -55 13 -4 11 -5 -5 -6 -19 -1 -23 4 -23 29 0 17 -5 30 -10
30 -6 0 -6 7 2 19 10 17 13 17 27 3 12 -11 13 -16 3 -20z m-62 -1 c0 -5 -8 -8
-17 -7 -12 1 -20 -9 -24 -29 -7 -30 -7 -29 -8 7 -1 27 3 38 17 41 20 4 32 -1
32 -12z m378 -17 c2 -16 9 -32 15 -36 7 -4 -4 -7 -23 -7 -19 1 -27 3 -17 6 18
5 25 53 7 53 -5 0 -10 5 -10 11 0 24 25 0 28 -27z m97 20 c19 -19 16 -43 -6
-57 -37 -23 -69 29 -37 61 16 16 23 15 43 -4z m149 0 c3 -9 3 -21 0 -26 -4 -6
1 -17 11 -25 17 -12 16 -13 -16 -13 -23 0 -30 3 -20 9 9 6 12 19 8 40 -7 32 6
43 17 15z m107 6 c6 -22 4 -70 -3 -70 -4 0 -9 15 -10 33 l-1 32 -4 -32 c-2
-18 -8 -33 -14 -33 -5 0 -10 15 -10 33 l-2 32 -7 -35 -7 -35 -2 37 c0 20 4 38
10 40 17 6 49 4 50 -2z m77 -33 c3 -37 2 -38 -25 -35 -34 4 -38 32 -5 36 28 4
29 22 1 22 -11 0 -17 4 -14 11 15 23 40 4 43 -34z m92 30 c0 -17 -21 -43 -40
-50 -8 -3 -2 -6 13 -6 41 -1 33 -36 -8 -36 -29 0 -30 1 -26 45 1 25 5 48 8 52
8 13 53 9 53 -5z m64 7 c9 -3 16 -15 16 -25 0 -14 -7 -19 -27 -19 -29 0 -22
-14 12 -23 12 -3 8 -5 -10 -4 -23 2 -31 7 -33 25 -2 13 2 30 8 38 14 16 13 16
34 8z m-1506 -36 c-2 -28 -7 -33 -28 -33 -16 0 -26 6 -28 18 -5 23 15 47 40
47 16 0 19 -6 16 -32z m466 16 c9 -22 -11 -54 -34 -54 -21 0 -37 40 -25 59 10
17 52 13 59 -5z m311 -19 c0 -25 -4 -30 -25 -30 -16 0 -26 6 -28 18 -6 30 6
49 30 45 18 -2 23 -9 23 -33z m-557 18 c-10 -2 -26 -2 -35 0 -10 3 -2 5 17 5
19 0 27 -2 18 -5z m0 -30 c-10 -2 -26 -2 -35 0 -10 3 -2 5 17 5 19 0 27 -2 18
-5z m-173 -175 c-6 -45 -5 -50 9 -45 10 4 15 3 11 -3 -3 -6 -13 -10 -21 -10
-15 0 -18 27 -8 79 10 50 17 36 9 -21z m385 32 c0 -11 -4 -20 -10 -20 -5 0
-10 9 -10 20 0 11 5 20 10 20 6 0 10 -9 10 -20z m30 5 c0 -8 -4 -15 -10 -15
-5 0 -10 7 -10 15 0 8 5 15 10 15 6 0 10 -7 10 -15z m120 -4 c0 -10 9 -21 20
-24 13 -3 20 -14 20 -29 0 -31 -16 -47 -41 -41 -16 4 -19 15 -19 59 0 30 5 54
10 54 6 0 10 -8 10 -19z m1190 9 c0 -5 -4 -10 -10 -10 -5 0 -10 5 -10 10 0 6
5 10 10 10 6 0 10 -4 10 -10z m-842 -31 c15 -1 15 -2 0 -6 -21 -5 -24 -43 -6
-61 9 -9 8 -12 -5 -12 -12 0 -17 8 -17 28 0 15 -5 33 -12 40 -9 9 -9 12 0 12
7 0 13 8 13 18 1 16 2 16 6 0 2 -10 12 -19 21 -19z m720 14 c-2 -12 4 -19 18
-21 25 -4 38 -40 22 -59 -6 -7 -21 -13 -34 -13 -22 0 -24 4 -24 55 0 32 4 55
10 55 6 0 10 -8 8 -17z m375 -24 c22 -2 22 -2 0 -6 -28 -5 -32 -47 -5 -63 15
-10 15 -10 -3 -8 -14 2 -21 12 -23 33 -2 16 -9 33 -15 37 -9 6 -9 8 1 8 6 0
13 8 13 18 1 16 2 16 6 0 2 -10 14 -19 26 -19z m180 0 c22 -2 22 -2 0 -6 -28
-5 -32 -47 -5 -62 15 -9 15 -10 -5 -11 -20 0 -23 5 -23 35 0 21 -5 35 -12 36
-10 0 -10 2 0 6 6 2 13 12 13 21 1 15 2 15 6 0 2 -10 14 -19 26 -19z m-2220 1
c-27 -11 -31 -47 -5 -53 13 -4 12 -5 -4 -6 -12 0 -25 6 -28 15 -9 24 12 54 37
53 l22 0 -22 -9z m169 -23 c-3 -26 -8 -33 -28 -35 -14 -1 -27 5 -30 12 -9 23
15 56 39 56 20 0 22 -4 19 -33z m66 26 c-19 -5 -25 -23 -8 -23 6 0 10 -9 10
-20 0 -15 -6 -20 -27 -19 -24 2 -25 2 -5 6 26 5 28 12 5 28 -20 15 -9 35 20
34 17 -1 18 -2 5 -6z m75 0 c-28 -5 -29 -12 -5 -29 21 -16 4 -38 -24 -31 -16
4 -15 5 4 6 24 1 31 21 7 21 -8 0 -15 9 -15 20 0 15 6 20 28 19 23 -2 24 -2 5
-6z m242 -28 c0 -25 -4 -30 -25 -30 -16 0 -26 6 -28 18 -6 30 6 49 30 45 18
-2 23 -9 23 -33z m155 -4 c0 -51 -8 -71 -29 -71 -14 1 -14 2 2 11 11 7 17 22
17 49 0 32 -4 39 -22 43 -20 4 -19 4 5 6 25 1 27 -2 27 -38z m88 16 c2 -12 -3
-17 -17 -17 -12 0 -21 -6 -21 -15 0 -9 6 -12 15 -9 8 4 15 1 15 -5 0 -15 -23
-14 -38 1 -16 16 -15 55 1 61 21 10 42 2 45 -16z m65 13 c-27 -11 -30 -45 -5
-59 16 -10 16 -10 0 -11 -10 0 -22 9 -28 20 -15 27 4 60 33 59 l22 0 -22 -9z
m240 0 c-14 -6 -23 -18 -23 -30 0 -12 9 -24 23 -30 l22 -9 -22 0 c-28 -1 -43
27 -32 57 5 14 16 22 31 21 l23 0 -22 -9z m102 -30 c0 -28 -4 -36 -21 -38 -11
-2 -27 4 -34 13 -20 24 3 67 33 63 18 -2 22 -9 22 -38z m56 -10 c4 0 9 10 12
22 4 12 9 20 12 17 7 -8 -15 -69 -25 -69 -9 0 -31 56 -29 74 1 6 6 -1 12 -16
6 -16 14 -28 18 -28z m107 38 c20 -20 14 -38 -13 -38 -31 0 -33 -17 -2 -23 15
-4 12 -5 -8 -4 -23 2 -31 7 -33 25 -6 41 30 66 56 40z m92 -17 c0 -13 -2 -13
-9 -2 -13 21 -39 6 -44 -26 -3 -24 -4 -22 -6 9 -1 27 3 37 17 40 25 6 42 -2
42 -21z m-1067 12 c-7 -2 -21 -2 -30 0 -10 3 -4 5 12 5 17 0 24 -2 18 -5z
m1232 -28 c0 -27 -3 -30 -30 -30 -21 0 -31 5 -33 18 -6 33 6 49 35 45 24 -3
28 -8 28 -33z m165 -9 c0 -45 -18 -72 -42 -63 -8 4 -7 6 5 6 13 1 17 10 17 45
0 34 -4 46 -17 49 -11 3 -7 5 10 6 25 1 27 -1 27 -43z m98 22 c3 -13 -3 -18
-22 -18 -32 0 -34 -15 -3 -25 19 -6 20 -8 4 -12 -10 -3 -24 1 -32 7 -16 13
-20 52 -8 64 13 13 58 1 61 -16z m66 15 c-34 -7 -37 -41 -6 -58 24 -12 25 -14
7 -15 -12 0 -26 5 -33 12 -26 26 -6 69 33 67 19 -2 19 -2 -1 -6z m372 -8 c4
-8 3 -27 0 -41 -5 -20 -12 -25 -34 -22 -28 3 -40 32 -28 64 7 19 55 18 62 -1z
m90 -10 c7 -27 -10 -55 -32 -55 -8 0 -14 -7 -14 -15 0 -8 -4 -15 -10 -15 -5 0
-10 25 -10 55 0 54 0 55 30 55 23 0 31 -5 36 -25z m-1393 8 c-7 -2 -19 -2 -25
0 -7 3 -2 5 12 5 14 0 19 -2 13 -5z m1110 -10 c-7 -2 -21 -2 -30 0 -10 3 -4 5
12 5 17 0 24 -2 18 -5z m-1740 -10 c-7 -2 -21 -2 -30 0 -10 3 -4 5 12 5 17 0
24 -2 18 -5z m-844 -182 c-12 -34 -23 -60 -26 -57 -3 2 3 29 12 58 20 59 25
71 31 65 2 -2 -6 -32 -17 -66z m-73 20 c-15 -16 -15 -19 -1 -31 8 -7 15 -17
15 -23 0 -5 -9 -2 -20 8 -11 10 -20 23 -20 28 0 14 32 49 38 42 3 -3 -2 -13
-12 -24z m374 -46 c-27 -29 -42 -25 -15 5 17 19 17 21 2 38 -28 31 -19 39 10
10 l27 -27 -24 -26z m-213 49 c-3 -3 -12 -4 -19 -1 -8 3 -5 6 6 6 11 1 17 -2
13 -5z m-157 -209 c-10 -12 -10 -18 0 -30 19 -23 6 -28 -14 -6 -17 19 -17 21
1 44 10 14 20 21 21 16 2 -5 -2 -16 -8 -24z m214 -41 c3 -8 2 -12 -4 -9 -6 3
-10 10 -10 16 0 14 7 11 14 -7z m-61 -21 c-7 -2 -19 -2 -25 0 -7 3 -2 5 12 5
14 0 19 -2 13 -5z m207 -151 c-6 -34 -4 -44 9 -52 13 -8 12 -9 -8 -10 -22 0
-23 2 -16 48 7 46 14 67 20 60 2 -2 0 -22 -5 -46z m380 18 c0 -11 -4 -20 -10
-20 -5 0 -10 9 -10 20 0 11 5 20 10 20 6 0 10 -9 10 -20z m17 -12 c-3 -7 -5
-2 -5 12 0 14 2 19 5 13 2 -7 2 -19 0 -25z m71 -8 c15 -1 15 -2 0 -11 -22 -12
-23 -33 -2 -53 14 -14 14 -16 0 -16 -9 0 -18 10 -21 23 -9 44 -8 95 2 70 2 -7
12 -13 21 -13z m240 -11 c15 -1 15 -2 0 -6 -21 -5 -24 -43 -5 -62 10 -11 9
-13 -3 -9 -8 3 -17 18 -18 34 -2 16 -9 32 -15 36 -9 6 -9 8 1 8 6 0 13 8 13
18 1 16 2 16 6 0 2 -10 12 -19 21 -19z m-763 14 c-38 -10 -45 -39 -12 -53 l22
-9 -23 0 c-12 -1 -25 5 -28 13 -9 23 14 56 39 55 20 -1 20 -2 2 -6z m161 -25
c-7 -37 -6 -35 -31 -40 -15 -2 -21 3 -23 20 -4 29 14 52 40 52 18 0 20 -5 14
-32z m64 22 c0 -5 -5 -10 -12 -10 -6 0 -4 -8 6 -19 14 -16 15 -20 2 -30 -8 -7
-23 -11 -33 -8 -14 4 -13 5 5 6 26 1 28 9 6 25 -9 7 -12 18 -8 29 7 18 34 24
34 7z m938 -21 c15 -1 15 -2 0 -6 -11 -3 -18 -14 -18 -28 0 -13 8 -29 18 -34
15 -9 15 -10 -5 -11 -19 0 -23 6 -23 28 0 15 -5 33 -12 40 -9 9 -9 12 0 12 7
0 13 8 13 18 1 16 2 16 6 0 2 -10 12 -19 21 -19z m-870 14 c-10 -2 -18 -7 -18
-10 0 -3 8 -12 18 -19 21 -16 4 -38 -24 -31 -16 4 -15 5 4 6 25 1 30 16 7 25
-24 9 -18 36 8 35 16 -1 18 -2 5 -6z m1115 -24 c22 -2 22 -2 0 -6 -28 -5 -32
-47 -5 -63 15 -10 15 -10 -3 -8 -14 2 -21 12 -23 33 -2 16 -9 33 -15 37 -9 6
-9 8 1 8 6 0 13 8 13 18 1 16 2 16 6 0 2 -10 14 -19 26 -19z m240 -11 c17 -2
23 -11 25 -35 2 -19 -1 -33 -7 -33 -6 0 -11 14 -11 31 0 39 -22 34 -31 -7 -5
-19 -7 -9 -6 31 0 33 2 50 4 38 3 -13 13 -23 26 -25z m87 32 c0 -5 -2 -10 -4
-10 -3 0 -8 5 -11 10 -3 6 -1 10 4 10 6 0 11 -4 11 -10z m-1362 -7 c-10 -2
-26 -2 -35 0 -10 3 -2 5 17 5 19 0 27 -2 18 -5z m250 -15 c3 -13 -3 -18 -22
-18 -32 0 -34 -17 -3 -23 19 -5 19 -5 -3 -4 -26 2 -37 25 -26 53 8 21 50 14
54 -8z m37 12 c5 -8 11 -7 21 1 16 13 19 -2 3 -18 -8 -8 -8 -13 0 -17 6 -4 11
-12 11 -18 0 -7 -5 -6 -14 1 -10 8 -16 9 -21 1 -3 -5 -11 -10 -17 -10 -6 0 -4
8 5 18 15 17 15 19 0 35 -10 10 -12 17 -6 17 7 0 15 -5 18 -10z m1163 -20 c15
-1 15 -2 0 -11 -25 -14 -22 -48 5 -59 22 -10 22 -10 -3 -7 -20 1 -26 8 -28 32
-2 16 -9 33 -15 37 -9 6 -9 8 1 8 6 0 13 8 13 18 1 16 2 16 6 0 2 -10 12 -18
21 -18z m316 3 c2 -10 10 -17 20 -15 9 2 21 -8 27 -22 15 -31 -2 -56 -37 -56
-23 0 -24 3 -24 62 0 57 8 74 14 31z m286 -33 c0 -36 5 -52 18 -59 13 -8 9
-10 -23 -10 -22 1 -32 3 -22 6 13 3 17 15 17 54 0 28 -5 49 -11 49 -5 0 -7 5
-4 10 13 21 25 -3 25 -50z m-1522 38 c9 -9 12 -9 12 0 0 7 5 12 11 12 8 0 8
-4 0 -14 -10 -11 -10 -20 0 -38 12 -22 11 -22 -6 -8 -14 11 -19 12 -22 3 -3
-7 -9 -13 -14 -13 -6 0 -5 9 1 21 9 15 8 24 -1 35 -14 17 2 19 19 2z m90 5
c-24 -6 -23 -19 3 -26 28 -7 19 -31 -12 -34 -14 -1 -17 0 -6 3 21 7 22 20 2
28 -24 9 -18 36 8 35 16 -1 18 -2 5 -6z m256 -9 c19 -19 12 -34 -15 -34 -26 0
-24 -18 4 -23 19 -4 18 -4 -6 -6 -33 -1 -44 20 -29 55 13 28 24 30 46 8z
m-409 -4 c3 -5 -1 -10 -9 -10 -8 0 -18 5 -21 10 -3 6 1 10 9 10 8 0 18 -4 21
-10z m460 0 c5 -8 11 -7 21 1 8 6 17 10 19 7 3 -3 -1 -11 -10 -18 -14 -12 -14
-15 1 -31 10 -11 12 -19 6 -19 -6 0 -14 5 -17 10 -5 8 -11 7 -21 -1 -8 -6 -17
-10 -19 -7 -3 3 1 11 10 18 14 12 14 15 -1 31 -10 11 -12 19 -6 19 6 0 14 -5
17 -10z m1313 -31 c15 -1 15 -2 0 -6 -10 -2 -18 -14 -18 -25 0 -11 8 -27 18
-35 16 -13 16 -14 -3 -11 -14 2 -21 12 -23 33 -2 16 -9 34 -15 38 -9 6 -9 10
1 14 6 2 13 12 13 21 1 10 4 8 6 -5 2 -13 12 -24 21 -24z m-2235 24 c-7 -2
-21 -2 -30 0 -10 3 -4 5 12 5 17 0 24 -2 18 -5z m1173 -22 c17 14 18 5 3 -22
-14 -27 -29 -14 -28 24 1 25 3 27 6 9 4 -19 7 -21 19 -11z m40 -39 c-4 -3 -12
0 -19 7 -9 11 -9 14 1 18 6 3 13 14 14 26 0 12 3 7 5 -11 3 -19 2 -37 -1 -40z
m144 40 c0 -15 5 -33 12 -40 9 -9 6 -12 -17 -12 -23 0 -26 3 -17 12 16 16 15
55 0 61 -8 3 -6 6 5 6 12 1 17 -7 17 -27z m184 12 c24 -24 19 -34 -16 -34 -33
0 -29 -14 7 -23 12 -3 8 -5 -10 -4 -24 2 -31 7 -33 26 -3 15 3 30 14 38 22 16
19 16 38 -3z m-429 -4 c3 -5 -1 -10 -9 -10 -8 0 -18 5 -21 10 -3 6 1 10 9 10
8 0 18 -4 21 -10z m611 -15 c3 -14 4 -32 0 -40 -6 -16 -51 -21 -60 -6 -10 16
5 41 25 41 24 0 25 17 2 23 -14 4 -13 5 4 6 16 1 24 -6 29 -24z m152 8 c-24
-6 -23 -19 3 -26 30 -8 18 -32 -17 -34 -20 -1 -22 0 -6 4 24 5 31 23 8 23 -8
0 -18 5 -21 10 -10 16 4 30 28 29 17 -1 18 -2 5 -6z m107 -33 c0 -25 -5 -36
-18 -38 -24 -5 -47 16 -47 43 0 29 9 37 40 33 21 -3 25 -8 25 -38z m135 -1 c0
-38 24 -35 28 4 5 40 22 33 22 -9 0 -34 -1 -35 -32 -32 -29 3 -33 7 -36 36 -2
18 1 32 7 32 6 0 11 -14 11 -31z m-2648 -58 c-9 -5 -14 -29 -15 -62 0 -30 -2
-43 -5 -29 -2 14 -9 28 -16 32 -8 6 -8 8 2 8 6 0 12 11 12 23 0 26 7 37 24 37
6 0 5 -4 -2 -9z m68 -25 c-4 -19 -4 -53 0 -76 5 -27 4 -38 -2 -32 -11 11 -14
114 -4 131 12 19 14 12 6 -23z m920 -42 c0 -13 6 -24 13 -25 10 0 10 -2 0 -6
-7 -2 -13 -20 -13 -39 0 -19 -5 -34 -11 -34 -5 0 -7 4 -4 10 12 19 7 111 -7
128 -12 15 -11 16 5 3 9 -7 17 -24 17 -37z m81 -2 c3 -17 2 -29 -2 -26 -5 3
-9 16 -9 29 0 13 -5 26 -10 28 -6 3 -5 4 2 3 7 -1 15 -17 19 -34z m-778 21
c-7 -2 -19 -2 -25 0 -7 3 -2 5 12 5 14 0 19 -2 13 -5z m470 -20 c-7 -2 -19 -2
-25 0 -7 3 -2 5 12 5 14 0 19 -2 13 -5z m-66 -29 c-3 -3 -12 -4 -19 -1 -8 3
-5 6 6 6 11 1 17 -2 13 -5z m-474 -11 c-7 -2 -19 -2 -25 0 -7 3 -2 5 12 5 14
0 19 -2 13 -5z m843 -59 c-3 -8 -11 -14 -18 -14 -9 0 -9 3 0 12 7 7 13 23 13
38 2 24 2 24 6 2 3 -13 2 -30 -1 -38z m-1141 -86 c-18 -55 -43 -95 -30 -48 13
50 38 110 42 106 3 -3 -3 -29 -12 -58z m-79 13 c-15 -16 -15 -19 -1 -31 8 -7
15 -17 15 -23 0 -5 -9 -2 -20 8 -11 10 -20 23 -20 28 0 14 32 49 38 42 3 -3
-2 -13 -12 -24z m372 -58 c-25 -27 -39 -22 -14 6 15 16 15 19 1 31 -8 7 -15
20 -15 29 1 11 8 7 25 -14 l24 -29 -21 -23z m-443 -163 c-10 -33 -22 -60 -27
-60 -6 0 -7 6 -5 13 3 6 13 36 23 64 24 72 32 58 9 -17z m-71 26 c-18 -14 -18
-15 -1 -33 26 -30 20 -40 -8 -13 l-25 24 22 23 c12 12 24 21 26 18 3 -3 -3
-12 -14 -19z m222 -11 c16 -24 16 -27 -1 -45 -10 -11 -23 -20 -28 -20 -6 0 -1
10 11 23 l22 23 -22 22 c-13 12 -17 22 -10 22 6 0 19 -11 28 -25z m-291 -202
c-9 -26 -19 -54 -21 -62 -3 -8 -7 -12 -9 -9 -5 5 6 44 27 101 18 48 21 21 3
-30z m-70 17 c-15 -16 -16 -22 -5 -35 19 -23 6 -28 -15 -5 -17 19 -17 21 0 40
10 11 23 20 28 20 6 0 2 -9 -8 -20z m132 -6 c-3 -3 -12 -4 -19 -1 -8 3 -5 6 6
6 11 1 17 -2 13 -5z m103 -30 c0 -8 -8 -14 -17 -14 -14 0 -15 2 -4 9 8 5 10
14 6 21 -5 9 -4 11 3 6 7 -4 12 -14 12 -22z m498 -51 c-12 -13 -26 -23 -31
-23 -6 0 -1 11 12 23 19 21 20 25 6 37 -8 7 -15 17 -15 23 0 6 11 0 25 -13
l25 -24 -22 -23z m-145 50 c-7 -2 -19 -2 -25 0 -7 3 -2 5 12 5 14 0 19 -2 13
-5z m-573 -352 c0 -5 -7 -14 -15 -21 -14 -12 -14 -15 1 -31 23 -26 9 -37 -16
-14 -24 22 -25 33 -3 57 17 19 33 24 33 9z m177 -78 c-3 -10 -5 -2 -5 17 0 19
2 27 5 18 2 -10 2 -26 0 -35z m41 22 c-3 -3 -9 2 -12 12 -6 14 -5 15 5 6 7 -7
10 -15 7 -18z m278 -1 c16 -24 16 -26 -4 -47 -12 -11 -25 -18 -28 -14 -4 4 1
14 12 21 18 14 18 15 1 33 -19 22 -22 33 -7 33 5 0 17 -12 26 -26z m-139 10
c-3 -3 -12 -4 -19 -1 -8 3 -5 6 6 6 11 1 17 -2 13 -5z m53 -4 c0 -5 -7 -7 -15
-4 -8 4 -15 8 -15 10 0 2 7 4 15 4 8 0 15 -4 15 -10z m-67 -57 c-7 -2 -19 -2
-25 0 -7 3 -2 5 12 5 14 0 19 -2 13 -5z m-300 -125 c4 -10 8 -9 16 2 7 9 11
10 11 3 0 -6 -5 -15 -10 -18 -8 -5 -7 -11 1 -21 6 -8 10 -16 8 -19 -2 -2 -14
12 -27 31 -12 19 -18 34 -13 34 5 0 12 -6 14 -12z m458 -91 c-12 -12 -41 -2
-41 15 0 10 2 10 9 -1 11 -18 31 -5 31 20 0 11 -7 19 -17 20 -17 1 -17 2 0 6
9 2 18 14 19 26 1 12 3 0 5 -27 2 -27 0 -53 -6 -59z m-536 84 c3 -5 1 -12 -5
-16 -5 -3 -10 1 -10 9 0 18 6 21 15 7z m180 -11 c8 -25 -10 -50 -36 -50 -15 0
-18 7 -17 35 1 29 5 35 24 35 14 0 25 -8 29 -20z m70 -15 c0 -23 -5 -31 -22
-33 -26 -4 -41 31 -22 54 20 24 44 13 44 -21z m442 29 c-3 -3 -12 -4 -19 -1
-8 3 -5 6 6 6 11 1 17 -2 13 -5z m-367 -22 c0 -14 -2 -15 -10 -2 -11 17 -25 6
-33 -25 -3 -14 -5 -11 -6 10 -1 26 3 31 24 33 18 1 25 -3 25 -16z m40 -12 c0
-17 7 -33 18 -39 9 -6 12 -11 6 -11 -6 0 -16 6 -21 13 -14 17 -22 67 -12 67 5
0 9 -13 9 -30z m320 -3 c12 -4 11 -6 -2 -6 -13 -1 -18 -10 -19 -33 l-2 -33 -6
35 c-7 37 -2 68 8 52 3 -5 13 -12 21 -15z m-72 1 c15 -15 16 -28 2 -28 -5 0
-9 6 -7 13 1 6 -4 12 -12 12 -8 0 -15 -8 -17 -18 -4 -27 -14 -34 -14 -11 0 19
17 44 30 44 3 0 11 -5 18 -12z m370 -29 c15 -1 15 -2 0 -6 -11 -3 -18 -14 -18
-28 0 -14 7 -26 18 -29 13 -4 13 -4 -3 -3 -21 2 -36 53 -26 92 5 19 6 18 9 -2
2 -13 11 -24 20 -24z m-218 -15 c0 -31 -3 -35 -22 -32 -29 4 -35 28 -9 35 23
6 28 19 9 26 -8 3 -6 6 5 6 13 1 17 -7 17 -35z m37 -16 c-2 -13 -4 -5 -4 17
-1 22 1 32 4 23 2 -10 2 -28 0 -40z m43 12 c0 -16 -4 -30 -8 -30 -5 0 -7 13
-4 30 2 17 6 30 8 30 2 0 4 -13 4 -30z m-233 -16 c-3 -3 -12 -4 -19 -1 -8 3
-5 6 6 6 11 1 17 -2 13 -5z m286 -21 c-7 -2 -19 -2 -25 0 -7 3 -2 5 12 5 14 0
19 -2 13 -5z"/>
<path d="M2713 3484 c-7 -18 11 -39 26 -30 17 11 13 46 -4 46 -9 0 -18 -7 -22
-16z"/>
<path d="M3494 3515 c-4 -9 -2 -21 4 -27 15 -15 44 -1 40 19 -4 23 -36 29 -44
8z"/>
<path d="M2802 3493 c-11 -22 -5 -43 13 -43 19 0 27 17 20 40 -8 25 -21 26
-33 3z"/>
<path d="M2637 3463 c-12 -12 -7 -22 8 -17 8 4 15 10 15 15 0 11 -14 12 -23 2z"/>
<path d="M2053 3454 c-7 -18 11 -39 26 -30 17 11 13 46 -4 46 -9 0 -18 -7 -22
-16z"/>
<path d="M2220 3470 c0 -5 7 -10 15 -10 8 0 15 5 15 10 0 6 -7 10 -15 10 -8 0
-15 -4 -15 -10z"/>
<path d="M1825 3459 c-10 -15 3 -25 16 -12 7 7 7 13 1 17 -6 3 -14 1 -17 -5z"/>
<path d="M1350 3440 c0 -5 7 -10 16 -10 8 0 12 5 9 10 -3 6 -10 10 -16 10 -5
0 -9 -4 -9 -10z"/>
<path d="M1500 3410 c0 -5 7 -10 15 -10 8 0 15 5 15 10 0 6 -7 10 -15 10 -8 0
-15 -4 -15 -10z"/>
<path d="M907 3423 c-10 -10 -8 -43 2 -43 9 0 21 24 21 41 0 11 -14 12 -23 2z"/>
<path d="M1436 3233 c-12 -12 -6 -43 9 -43 8 0 15 9 15 19 0 21 -13 34 -24 24z"/>
<path d="M1580 3200 c0 -5 4 -10 9 -10 6 0 13 5 16 10 3 6 -1 10 -9 10 -9 0
-16 -4 -16 -10z"/>
<path d="M1055 3220 c-3 -5 1 -10 9 -10 9 0 16 5 16 10 0 6 -4 10 -9 10 -6 0
-13 -4 -16 -10z"/>
<path d="M825 3199 c-9 -29 4 -38 21 -15 18 25 18 36 0 36 -8 0 -18 -9 -21
-21z"/>
<path d="M977 3213 c-10 -10 -8 -43 2 -43 9 0 21 24 21 41 0 11 -14 12 -23 2z"/>
<path d="M985 3010 c-3 -5 -1 -10 4 -10 6 0 11 5 11 10 0 6 -2 10 -4 10 -3 0
-8 -4 -11 -10z"/>
<path d="M2550 2805 c0 -16 6 -25 15 -25 9 0 15 9 15 25 0 16 -6 25 -15 25 -9
0 -15 -9 -15 -25z"/>
<path d="M2800 2810 c0 -22 4 -28 15 -24 8 4 15 17 15 30 0 15 -6 24 -15 24
-10 0 -15 -10 -15 -30z"/>
<path d="M2216 2813 c-8 -19 8 -38 23 -29 16 10 13 46 -3 46 -8 0 -17 -8 -20
-17z"/>
<path d="M1813 2835 c-3 -9 -3 -19 1 -22 8 -9 37 18 30 28 -8 14 -24 11 -31
-6z"/>
<path d="M1823 2795 c-3 -9 -3 -18 0 -21 9 -9 27 6 27 22 0 19 -19 18 -27 -1z"/>
<path d="M1740 2810 c-9 -16 -8 -20 5 -20 8 0 15 9 15 20 0 11 -2 20 -5 20 -2
0 -9 -9 -15 -20z"/>
<path d="M3142 2828 c6 -18 28 -21 28 -4 0 9 -7 16 -16 16 -9 0 -14 -5 -12
-12z"/>
<path d="M3140 2770 c0 -5 9 -10 20 -10 11 0 20 5 20 10 0 6 -9 10 -20 10 -11
0 -20 -4 -20 -10z"/>
<path d="M3333 2813 c-18 -7 -16 -23 2 -23 8 0 15 7 15 15 0 8 -1 15 -2 14 -2
0 -9 -3 -15 -6z"/>
<path d="M2637 2834 c-4 -4 -7 -18 -7 -31 0 -18 5 -24 18 -21 10 2 17 12 17
27 0 24 -15 37 -28 25z"/>
<path d="M2885 2830 c-3 -5 3 -10 14 -10 12 0 21 5 21 10 0 6 -6 10 -14 10 -8
0 -18 -4 -21 -10z"/>
<path d="M2054 2816 c-8 -22 3 -49 19 -43 6 2 12 14 12 27 0 27 -22 39 -31 16z"/>
<path d="M2300 2820 c0 -5 7 -10 15 -10 8 0 15 5 15 10 0 6 -7 10 -15 10 -8 0
-15 -4 -15 -10z"/>
<path d="M1197 2788 c-8 -30 2 -37 19 -14 18 25 18 36 0 36 -7 0 -16 -10 -19
-22z"/>
<path d="M1586 2423 c-12 -12 -6 -43 9 -43 8 0 15 9 15 19 0 21 -13 34 -24 24z"/>
<path d="M2216 2381 c-9 -14 4 -41 20 -41 8 0 14 10 14 25 0 25 -23 35 -34 16z"/>
<path d="M2550 2350 c0 -5 4 -10 9 -10 6 0 13 5 16 10 3 6 -1 10 -9 10 -9 0
-16 -4 -16 -10z"/>
<path d="M2632 2378 c6 -18 28 -21 28 -4 0 9 -7 16 -16 16 -9 0 -14 -5 -12
-12z"/>
<path d="M2630 2320 c0 -5 9 -10 20 -10 11 0 20 5 20 10 0 6 -9 10 -20 10 -11
0 -20 -4 -20 -10z"/>
<path d="M2720 2385 c0 -8 7 -15 15 -15 8 0 15 4 15 9 0 5 -7 11 -15 15 -9 3
-15 0 -15 -9z"/>
<path d="M1196 2374 c-3 -9 -3 -20 0 -25 8 -13 34 9 34 27 0 19 -26 18 -34 -2z"/>
<path d="M1658 2378 c-7 -19 2 -38 17 -38 15 0 24 19 18 38 -3 6 -11 12 -18
12 -7 0 -15 -6 -17 -12z"/>
<path d="M1973 2374 c-7 -18 11 -39 26 -30 17 11 13 46 -4 46 -9 0 -18 -7 -22
-16z"/>
<path d="M1820 2156 c0 -17 5 -26 16 -26 10 0 14 7 12 22 -5 32 -28 35 -28 4z"/>
<path d="M2890 2145 c0 -16 6 -25 15 -25 9 0 15 9 15 25 0 16 -6 25 -15 25 -9
0 -15 -9 -15 -25z"/>
<path d="M1357 2173 c-4 -3 -7 -15 -7 -26 0 -16 3 -17 15 -7 8 7 15 19 15 26
0 15 -12 19 -23 7z"/>
<path d="M1734 2165 c-7 -18 3 -35 22 -35 8 0 14 10 14 25 0 27 -27 35 -36 10z"/>
<path d="M1980 2170 c0 -5 7 -10 16 -10 8 0 12 5 9 10 -3 6 -10 10 -16 10 -5
0 -9 -4 -9 -10z"/>
<path d="M2387 2174 c-4 -4 -7 -18 -7 -31 0 -18 5 -24 18 -21 10 2 17 12 17
27 0 24 -15 37 -28 25z"/>
<path d="M2550 2160 c0 -5 7 -10 15 -10 8 0 15 5 15 10 0 6 -7 10 -15 10 -8 0
-15 -4 -15 -10z"/>
<path d="M2797 2157 c-3 -8 -2 -20 3 -27 11 -18 42 -4 38 17 -4 22 -34 29 -41
10z"/>
<path d="M3060 2160 c0 -5 7 -10 15 -10 8 0 15 5 15 10 0 6 -7 10 -15 10 -8 0
-15 -4 -15 -10z"/>
<path d="M3496 2155 c-7 -20 3 -45 19 -45 19 0 27 17 20 40 -7 24 -30 26 -39
5z"/>
<path d="M3597 2163 c-13 -12 -7 -53 7 -53 17 0 28 24 20 45 -7 16 -17 19 -27
8z"/>
<path d="M1127 1553 c-4 -3 -7 -15 -7 -25 0 -26 24 -17 28 10 3 21 -8 29 -21
15z"/>
<path d="M1580 1530 c0 -5 7 -10 15 -10 8 0 15 5 15 10 0 6 -7 10 -15 10 -8 0
-15 -4 -15 -10z"/>
<path d="M3146 1474 c-8 -20 1 -34 20 -34 8 0 14 10 14 25 0 28 -24 34 -34 9z"/>
<path d="M2220 1510 c0 -5 7 -10 15 -10 8 0 15 5 15 10 0 6 -7 10 -15 10 -8 0
-15 -4 -15 -10z"/>
<path d="M2890 1490 c0 -5 7 -10 15 -10 8 0 15 5 15 10 0 6 -7 10 -15 10 -8 0
-15 -4 -15 -10z"/>
<path d="M3060 1455 c0 -8 7 -15 15 -15 8 0 15 4 15 9 0 5 -7 11 -15 15 -9 3
-15 0 -15 -9z"/>
<path d="M3317 1476 c-8 -21 19 -54 33 -40 7 7 10 20 8 30 -4 23 -33 30 -41
10z"/>
<path d="M536 123 c-9 -22 10 -41 25 -26 13 13 5 43 -10 43 -5 0 -12 -8 -15
-17z"/>
<path d="M604 125 c-7 -18 3 -35 22 -35 8 0 14 10 14 25 0 27 -27 35 -36 10z"/>
<path d="M1120 50 c0 -5 7 -10 15 -10 8 0 15 5 15 10 0 6 -7 10 -15 10 -8 0
-15 -4 -15 -10z"/>
<path d="M3676 2874 c-10 -25 -7 -34 9 -28 8 4 15 15 15 25 0 23 -16 25 -24 3z"/>
<path d="M3685 2827 c-4 -10 -5 -21 -1 -24 10 -10 18 4 13 24 -4 17 -4 17 -12
0z"/>
<path d="M3680 1470 c0 -5 5 -10 10 -10 6 0 10 5 10 10 0 6 -4 10 -10 10 -5 0
-10 -4 -10 -10z"/>
<path d="M3680 1435 c0 -8 5 -15 10 -15 6 0 10 7 10 15 0 8 -4 15 -10 15 -5 0
-10 -7 -10 -15z"/>
</g>
</svg>
